# Blender 4.1.1
# www.blender.org
mtllib vitejka.mtl
o vitejka
v -1.400000 -0.200000 0.700000
v -1.400000 1.500000 0.700000
v -1.400000 -0.200000 -0.700000
v -1.400000 1.500000 -0.700000
v -0.300000 -0.200000 0.700000
v -0.300000 -0.200000 -0.700000
v -0.300000 0.963546 0.700000
v -1.025517 1.500000 0.700000
v -0.397201 1.191661 0.700000
v -0.662759 1.400402 0.700000
v -1.025517 1.500000 -0.700000
v -0.300000 0.963546 -0.700000
v -0.662759 1.400402 -0.700000
v -0.397201 1.191661 -0.700000
v -1.301005 -0.200000 0.601005
v -1.319171 1.384530 0.619171
v -1.301005 -0.200000 -0.601005
v -1.319171 1.384530 -0.619171
v -0.398995 -0.200000 0.601005
v -0.398995 -0.200000 -0.601005
v -0.402314 0.922558 0.608849
v -1.035169 1.355207 0.603906
v -0.470477 1.082294 0.608514
v -0.697892 1.261372 0.605690
v -1.035169 1.355207 -0.603906
v -0.402314 0.922558 -0.608849
v -0.697892 1.261372 -0.605690
v -0.470477 1.082294 -0.608514
vn -1.0000 -0.0000 -0.0000
vn -0.0000 -0.0000 1.0000
vn -0.0000 -0.0000 -1.0000
vn 1.0000 -0.0000 -0.0000
vn 0.2648 0.9643 -0.0000
vn 0.6180 0.7862 -0.0000
vn 0.9200 0.3920 -0.0000
vn -0.0000 1.0000 -0.0000
vn 0.9999 0.0115 -0.0000
vn -0.0052 0.0045 -1.0000
vn -0.0052 0.0045 1.0000
vn -1.0000 -0.0030 -0.0000
vn -0.2680 -0.9634 -0.0000
vn -0.6187 -0.7857 -0.0000
vn -0.9198 -0.3925 -0.0000
vn -0.1027 -0.9947 -0.0000
vn -0.0000 -1.0000 -0.0000
vt 0.375000 0.000000
vt 0.625000 0.000000
vt 0.625000 0.250000
vt 0.375000 0.250000
vt 0.375000 0.750000
vt 0.495443 0.750000
vt 0.560222 0.767357
vt 0.607643 0.814778
vt 0.625000 0.879557
vt 0.625000 1.000000
vt 0.375000 1.000000
vt 0.625000 0.370443
vt 0.607643 0.435222
vt 0.560222 0.482643
vt 0.495443 0.500000
vt 0.375000 0.500000
vt 0.754557 0.500000
vt 0.754557 0.750000
vt 0.689778 0.750000
vt 0.689778 0.500000
vt 0.560222 0.750000
vt 0.560222 0.500000
vt 0.875000 0.500000
vt 0.875000 0.750000
s 0
f 1/1/1 2/2/1 4/3/1 3/4/1
f 5/5/2 7/6/2 9/7/2 10/8/2 8/9/2 2/10/2 1/11/2
f 3/4/3 4/3/3 11/12/3 13/13/3 14/14/3 12/15/3 6/16/3
f 6/16/4 12/15/4 7/6/4 5/5/4
f 11/17/5 8/18/5 10/19/5 13/20/5
f 13/20/6 10/19/6 9/21/6 14/22/6
f 14/22/7 9/21/7 7/6/7 12/15/7
f 11/17/8 4/23/8 2/24/8 8/18/8
f 15/1/9 17/4/9 18/3/9 16/2/9
f 19/5/10 15/11/10 16/10/10 22/9/10 24/8/10 23/7/10 21/6/10
f 17/4/11 20/16/11 26/15/11 28/14/11 27/13/11 25/12/11 18/3/11
f 20/16/12 19/5/12 21/6/12 26/15/12
f 25/17/13 27/20/13 24/19/13 22/18/13
f 27/20/14 28/22/14 23/21/14 24/19/14
f 28/22/15 26/15/15 21/6/15 23/21/15
f 25/17/16 22/18/16 16/24/16 18/23/16
f 1/1/17 3/4/17 17/4/17 15/1/17
f 3/4/17 6/16/17 20/16/17 17/4/17
f 6/16/17 5/5/17 19/5/17 20/16/17
f 5/5/17 1/11/17 15/11/17 19/5/17
