# Blender 4.1.1
# www.blender.org
mtllib zaborAll.mtl
o zabor5x10
v 10.804999 -0.138430 9.967769
v 10.804999 5.998430 9.967769
v 10.804999 5.998430 9.398705
v 10.804999 -0.138430 9.398705
v 11.094999 5.998430 9.967769
v 11.094999 5.998430 9.398705
v 11.095000 -0.138430 9.398705
v 11.095000 -0.138430 9.967769
v 10.804999 -0.138430 9.341797
v 10.804999 5.998430 9.341797
v 10.804999 5.998430 8.772733
v 10.804999 -0.138430 8.772733
v 11.094999 5.998430 9.341797
v 11.094999 5.998430 8.772733
v 11.095000 -0.138430 8.772733
v 11.095000 -0.138430 9.341797
v 10.804999 -0.138430 8.715826
v 10.804999 5.998430 8.715826
v 10.804999 5.998430 8.146761
v 10.804999 -0.138430 8.146761
v 11.094999 5.998430 8.715826
v 11.094999 5.998430 8.146761
v 11.095000 -0.138430 8.146761
v 11.095000 -0.138430 8.715826
v 10.804999 -0.138430 8.089855
v 10.804999 5.998430 8.089855
v 10.804999 5.998430 7.520790
v 10.804999 -0.138430 7.520790
v 11.094999 5.998430 8.089855
v 11.094999 5.998430 7.520790
v 11.095000 -0.138430 7.520790
v 11.095000 -0.138430 8.089855
v 10.804999 -0.138430 7.463884
v 10.804999 5.998430 7.463884
v 10.804999 5.998430 6.894819
v 10.804999 -0.138430 6.894819
v 11.094999 5.998430 7.463884
v 11.094999 5.998430 6.894819
v 11.095000 -0.138430 6.894819
v 11.095000 -0.138430 7.463884
v 10.804999 -0.138430 6.837913
v 10.804999 5.998430 6.837913
v 10.804999 5.998430 6.268848
v 10.804999 -0.138430 6.268848
v 11.094999 5.998430 6.837913
v 11.094999 5.998430 6.268848
v 11.095000 -0.138430 6.268848
v 11.095000 -0.138430 6.837913
v 10.804999 -0.138430 6.211942
v 10.804999 5.998430 6.211942
v 10.804999 5.998430 5.642877
v 10.804999 -0.138430 5.642877
v 11.094999 5.998430 6.211942
v 11.094999 5.998430 5.642877
v 11.095000 -0.138430 5.642877
v 11.095000 -0.138430 6.211942
v 10.804999 -0.138430 5.585971
v 10.804999 5.998430 5.585971
v 10.804999 5.998430 5.016906
v 10.804999 -0.138430 5.016906
v 11.094999 5.998430 5.585971
v 11.094999 5.998430 5.016906
v 11.095000 -0.138430 5.016906
v 11.095000 -0.138430 5.585971
v 10.804999 -0.138430 4.960000
v 10.804999 5.998430 4.960000
v 10.804999 5.998430 4.390935
v 10.804999 -0.138430 4.390935
v 11.094999 5.998430 4.960000
v 11.094999 5.998430 4.390935
v 11.095000 -0.138430 4.390935
v 11.095000 -0.138430 4.960000
v 10.804999 -0.138430 4.334029
v 10.804999 5.998430 4.334029
v 10.804999 5.998430 3.764964
v 10.804999 -0.138430 3.764964
v 11.094999 5.998430 4.334029
v 11.094999 5.998430 3.764964
v 11.095000 -0.138430 3.764964
v 11.095000 -0.138430 4.334029
v 10.804999 -0.138430 3.708057
v 10.804999 5.998430 3.708057
v 10.804999 5.998430 3.138992
v 10.804999 -0.138430 3.138992
v 11.094999 5.998430 3.708057
v 11.094999 5.998430 3.138992
v 11.095000 -0.138430 3.138992
v 11.095000 -0.138430 3.708057
v 10.804999 -0.138430 3.082086
v 10.804999 5.998430 3.082086
v 10.804999 5.998430 2.513021
v 10.804999 -0.138430 2.513021
v 11.094999 5.998430 3.082086
v 11.094999 5.998430 2.513021
v 11.095000 -0.138430 2.513021
v 11.095000 -0.138430 3.082086
v 10.804999 -0.138430 2.456114
v 10.804999 5.998430 2.456114
v 10.804999 5.998430 1.887049
v 10.804999 -0.138430 1.887049
v 11.094999 5.998430 2.456114
v 11.094999 5.998430 1.887049
v 11.095000 -0.138430 1.887049
v 11.095000 -0.138430 2.456114
v 10.804999 -0.138430 1.830143
v 10.804999 5.998430 1.830143
v 10.804999 5.998430 1.261078
v 10.804999 -0.138430 1.261078
v 11.094999 5.998430 1.830143
v 11.094999 5.998430 1.261078
v 11.095000 -0.138430 1.261078
v 11.095000 -0.138430 1.830143
v 10.804999 -0.138430 1.204171
v 10.804999 5.998430 1.204171
v 10.804999 5.998430 0.635106
v 10.804999 -0.138430 0.635106
v 11.094999 5.998430 1.204171
v 11.094999 5.998430 0.635106
v 11.095000 -0.138430 0.635106
v 11.095000 -0.138430 1.204171
v 10.804999 -0.138430 0.578199
v 10.804999 5.998430 0.578199
v 10.804999 5.998430 0.009134
v 10.804999 -0.138430 0.009134
v 11.094999 5.998430 0.578199
v 11.094999 5.998430 0.009134
v 11.095000 -0.138430 0.009134
v 11.095000 -0.138430 0.578199
vn -0.0000 -0.0000 -1.0000
vn -1.0000 -0.0000 -0.0000
vn -0.0000 -1.0000 -0.0000
vn -0.0000 -0.0000 1.0000
vn -0.0000 1.0000 -0.0000
vn 1.0000 -0.0000 -0.0000
vt 0.010523 0.810523
vt 0.989477 0.810523
vt 0.989477 0.989477
vt 0.010523 0.989477
s 0
f 1/1/1 2/2/1 5/2/1 8/1/1
f 8/1/2 5/2/2 6/3/2 7/4/2
f 2/2/3 3/3/3 6/3/3 5/2/3
f 3/3/4 4/4/4 7/4/4 6/3/4
f 4/4/5 1/1/5 8/1/5 7/4/5
f 2/2/6 1/1/6 4/4/6 3/3/6
f 9/1/1 10/2/1 13/2/1 16/1/1
f 16/1/2 13/2/2 14/3/2 15/4/2
f 10/2/3 11/3/3 14/3/3 13/2/3
f 11/3/4 12/4/4 15/4/4 14/3/4
f 12/4/5 9/1/5 16/1/5 15/4/5
f 10/2/6 9/1/6 12/4/6 11/3/6
f 17/1/1 18/2/1 21/2/1 24/1/1
f 24/1/2 21/2/2 22/3/2 23/4/2
f 18/2/3 19/3/3 22/3/3 21/2/3
f 19/3/4 20/4/4 23/4/4 22/3/4
f 20/4/5 17/1/5 24/1/5 23/4/5
f 18/2/6 17/1/6 20/4/6 19/3/6
f 25/1/1 26/2/1 29/2/1 32/1/1
f 32/1/2 29/2/2 30/3/2 31/4/2
f 26/2/3 27/3/3 30/3/3 29/2/3
f 27/3/4 28/4/4 31/4/4 30/3/4
f 28/4/5 25/1/5 32/1/5 31/4/5
f 26/2/6 25/1/6 28/4/6 27/3/6
f 33/1/1 34/2/1 37/2/1 40/1/1
f 40/1/2 37/2/2 38/3/2 39/4/2
f 34/2/3 35/3/3 38/3/3 37/2/3
f 35/3/4 36/4/4 39/4/4 38/3/4
f 36/4/5 33/1/5 40/1/5 39/4/5
f 34/2/6 33/1/6 36/4/6 35/3/6
f 41/1/1 42/2/1 45/2/1 48/1/1
f 48/1/2 45/2/2 46/3/2 47/4/2
f 42/2/3 43/3/3 46/3/3 45/2/3
f 43/3/4 44/4/4 47/4/4 46/3/4
f 44/4/5 41/1/5 48/1/5 47/4/5
f 42/2/6 41/1/6 44/4/6 43/3/6
f 49/1/1 50/2/1 53/2/1 56/1/1
f 56/1/2 53/2/2 54/3/2 55/4/2
f 50/2/3 51/3/3 54/3/3 53/2/3
f 51/3/4 52/4/4 55/4/4 54/3/4
f 52/4/5 49/1/5 56/1/5 55/4/5
f 50/2/6 49/1/6 52/4/6 51/3/6
f 57/1/1 58/2/1 61/2/1 64/1/1
f 64/1/2 61/2/2 62/3/2 63/4/2
f 58/2/3 59/3/3 62/3/3 61/2/3
f 59/3/4 60/4/4 63/4/4 62/3/4
f 60/4/5 57/1/5 64/1/5 63/4/5
f 58/2/6 57/1/6 60/4/6 59/3/6
f 65/1/1 66/2/1 69/2/1 72/1/1
f 72/1/2 69/2/2 70/3/2 71/4/2
f 66/2/3 67/3/3 70/3/3 69/2/3
f 67/3/4 68/4/4 71/4/4 70/3/4
f 68/4/5 65/1/5 72/1/5 71/4/5
f 66/2/6 65/1/6 68/4/6 67/3/6
f 73/1/1 74/2/1 77/2/1 80/1/1
f 80/1/2 77/2/2 78/3/2 79/4/2
f 74/2/3 75/3/3 78/3/3 77/2/3
f 75/3/4 76/4/4 79/4/4 78/3/4
f 76/4/5 73/1/5 80/1/5 79/4/5
f 74/2/6 73/1/6 76/4/6 75/3/6
f 81/1/1 82/2/1 85/2/1 88/1/1
f 88/1/2 85/2/2 86/3/2 87/4/2
f 82/2/3 83/3/3 86/3/3 85/2/3
f 83/3/4 84/4/4 87/4/4 86/3/4
f 84/4/5 81/1/5 88/1/5 87/4/5
f 82/2/6 81/1/6 84/4/6 83/3/6
f 89/1/1 90/2/1 93/2/1 96/1/1
f 96/1/2 93/2/2 94/3/2 95/4/2
f 90/2/3 91/3/3 94/3/3 93/2/3
f 91/3/4 92/4/4 95/4/4 94/3/4
f 92/4/5 89/1/5 96/1/5 95/4/5
f 90/2/6 89/1/6 92/4/6 91/3/6
f 97/1/1 98/2/1 101/2/1 104/1/1
f 104/1/2 101/2/2 102/3/2 103/4/2
f 98/2/3 99/3/3 102/3/3 101/2/3
f 99/3/4 100/4/4 103/4/4 102/3/4
f 100/4/5 97/1/5 104/1/5 103/4/5
f 98/2/6 97/1/6 100/4/6 99/3/6
f 105/1/1 106/2/1 109/2/1 112/1/1
f 112/1/2 109/2/2 110/3/2 111/4/2
f 106/2/3 107/3/3 110/3/3 109/2/3
f 107/3/4 108/4/4 111/4/4 110/3/4
f 108/4/5 105/1/5 112/1/5 111/4/5
f 106/2/6 105/1/6 108/4/6 107/3/6
f 113/1/1 114/2/1 117/2/1 120/1/1
f 120/1/2 117/2/2 118/3/2 119/4/2
f 114/2/3 115/3/3 118/3/3 117/2/3
f 115/3/4 116/4/4 119/4/4 118/3/4
f 116/4/5 113/1/5 120/1/5 119/4/5
f 114/2/6 113/1/6 116/4/6 115/3/6
f 121/1/1 122/2/1 125/2/1 128/1/1
f 128/1/2 125/2/2 126/3/2 127/4/2
f 122/2/3 123/3/3 126/3/3 125/2/3
f 123/3/4 124/4/4 127/4/4 126/3/4
f 124/4/5 121/1/5 128/1/5 127/4/5
f 122/2/6 121/1/6 124/4/6 123/3/6
o zabor10x20
v 10.809441 -0.138430 -2.011261
v 10.809441 5.998430 -2.011261
v 10.809441 5.998430 -2.563751
v 10.809441 -0.138430 -2.563751
v 11.090576 5.998430 -2.011261
v 11.090576 5.998430 -2.563751
v 11.090575 -0.138430 -2.563751
v 11.090575 -0.138430 -2.011261
v 10.809441 -0.138430 -2.618999
v 10.809441 5.998430 -2.618999
v 10.809441 5.998430 -3.171489
v 10.809441 -0.138430 -3.171489
v 11.090576 5.998430 -2.618999
v 11.090576 5.998430 -3.171489
v 11.090575 -0.138430 -3.171489
v 11.090575 -0.138430 -2.618999
v 10.809441 -0.138430 -3.226738
v 10.809441 5.998430 -3.226738
v 10.809441 5.998430 -3.779228
v 10.809441 -0.138430 -3.779228
v 11.090576 5.998430 -3.226738
v 11.090576 5.998430 -3.779228
v 11.090575 -0.138430 -3.779228
v 11.090575 -0.138430 -3.226738
v 10.809441 -0.138430 -3.834477
v 10.809441 5.998430 -3.834477
v 10.809441 5.998430 -4.386967
v 10.809441 -0.138430 -4.386967
v 11.090576 5.998430 -3.834477
v 11.090576 5.998430 -4.386967
v 11.090575 -0.138430 -4.386967
v 11.090575 -0.138430 -3.834477
v 10.809441 -0.138430 -4.442216
v 10.809441 5.998430 -4.442216
v 10.809441 5.998430 -4.994706
v 10.809441 -0.138430 -4.994706
v 11.090576 5.998430 -4.442216
v 11.090576 5.998430 -4.994706
v 11.090575 -0.138430 -4.994706
v 11.090575 -0.138430 -4.442216
v 10.809441 -0.138430 -5.049955
v 10.809441 5.998430 -5.049955
v 10.809441 5.998430 -5.602445
v 10.809441 -0.138430 -5.602445
v 11.090576 5.998430 -5.049955
v 11.090576 5.998430 -5.602445
v 11.090575 -0.138430 -5.602445
v 11.090575 -0.138430 -5.049955
v 10.809441 -0.138430 -5.657694
v 10.809441 5.998430 -5.657694
v 10.809441 5.998430 -6.210184
v 10.809441 -0.138430 -6.210184
v 11.090576 5.998430 -5.657694
v 11.090576 5.998430 -6.210184
v 11.090575 -0.138430 -6.210184
v 11.090575 -0.138430 -5.657694
v 10.809441 -0.138430 -6.265433
v 10.809441 5.998430 -6.265433
v 10.809441 5.998430 -6.817923
v 10.809441 -0.138430 -6.817923
v 11.090576 5.998430 -6.265433
v 11.090576 5.998430 -6.817923
v 11.090575 -0.138430 -6.817923
v 11.090575 -0.138430 -6.265433
v 10.809441 -0.138430 -6.873172
v 10.809441 5.998430 -6.873172
v 10.809441 5.998430 -7.425662
v 10.809441 -0.138430 -7.425662
v 11.090576 5.998430 -6.873172
v 11.090576 5.998430 -7.425662
v 11.090575 -0.138430 -7.425662
v 11.090575 -0.138430 -6.873172
v 10.809441 -0.138430 -7.480910
v 10.809441 5.998430 -7.480910
v 10.809441 5.998430 -8.033401
v 10.809441 -0.138430 -8.033401
v 11.090576 5.998430 -7.480910
v 11.090576 5.998430 -8.033401
v 11.090575 -0.138430 -8.033401
v 11.090575 -0.138430 -7.480910
v 10.809441 -0.138430 -8.088650
v 10.809441 5.998430 -8.088650
v 10.809441 5.998430 -8.641140
v 10.809441 -0.138430 -8.641140
v 11.090576 5.998430 -8.088650
v 11.090576 5.998430 -8.641140
v 11.090575 -0.138430 -8.641140
v 11.090575 -0.138430 -8.088650
v 10.809441 -0.138430 -8.696389
v 10.809441 5.998430 -8.696389
v 10.809441 5.998430 -9.248878
v 10.809441 -0.138430 -9.248878
v 11.090576 5.998430 -8.696389
v 11.090576 5.998430 -9.248878
v 11.090575 -0.138430 -9.248878
v 11.090575 -0.138430 -8.696389
v 10.809441 -0.138430 -9.304129
v 10.809441 5.998430 -9.304129
v 10.809441 5.998430 -9.856618
v 10.809441 -0.138430 -9.856618
v 11.090576 5.998430 -9.304129
v 11.090576 5.998430 -9.856618
v 11.090575 -0.138430 -9.856618
v 11.090575 -0.138430 -9.304129
v 10.809441 -0.138430 -9.911867
v 10.809441 5.998430 -9.911867
v 10.809441 5.998430 -10.464357
v 10.809441 -0.138430 -10.464357
v 11.090576 5.998430 -9.911867
v 11.090576 5.998430 -10.464357
v 11.090575 -0.138430 -10.464357
v 11.090575 -0.138430 -9.911867
v 10.809441 -0.138430 -10.519607
v 10.809441 5.998430 -10.519607
v 10.809441 5.998430 -11.072097
v 10.809441 -0.138430 -11.072097
v 11.090576 5.998430 -10.519607
v 11.090576 5.998430 -11.072097
v 11.090575 -0.138430 -11.072097
v 11.090575 -0.138430 -10.519607
v 10.809441 -0.138430 -11.127346
v 10.809441 5.998430 -11.127346
v 10.809441 5.998430 -11.679836
v 10.809441 -0.138430 -11.679836
v 11.090576 5.998430 -11.127346
v 11.090576 5.998430 -11.679836
v 11.090575 -0.138430 -11.679836
v 11.090575 -0.138430 -11.127346
v 10.809441 -0.138430 -11.735085
v 10.809441 5.998430 -11.735085
v 10.809441 5.998430 -12.287575
v 10.809441 -0.138430 -12.287575
v 11.090576 5.998430 -11.735085
v 11.090576 5.998430 -12.287575
v 11.090575 -0.138430 -12.287575
v 11.090575 -0.138430 -11.735085
v 10.809441 -0.138430 -12.342824
v 10.809441 5.998430 -12.342824
v 10.809441 5.998430 -12.895314
v 10.809441 -0.138430 -12.895314
v 11.090576 5.998430 -12.342824
v 11.090576 5.998430 -12.895314
v 11.090575 -0.138430 -12.895314
v 11.090575 -0.138430 -12.342824
v 10.809441 -0.138430 -12.950563
v 10.809441 5.998430 -12.950563
v 10.809441 5.998430 -13.503054
v 10.809441 -0.138430 -13.503054
v 11.090576 5.998430 -12.950563
v 11.090576 5.998430 -13.503054
v 11.090575 -0.138430 -13.503054
v 11.090575 -0.138430 -12.950563
v 10.809441 -0.138430 -13.558303
v 10.809441 5.998430 -13.558303
v 10.809441 5.998430 -14.110792
v 10.809441 -0.138430 -14.110792
v 11.090576 5.998430 -13.558303
v 11.090576 5.998430 -14.110792
v 11.090575 -0.138430 -14.110792
v 11.090575 -0.138430 -13.558303
v 10.809441 -0.138430 -14.166042
v 10.809441 5.998430 -14.166042
v 10.809441 5.998430 -14.718531
v 10.809441 -0.138430 -14.718531
v 11.090576 5.998430 -14.166042
v 11.090576 5.998430 -14.718531
v 11.090575 -0.138430 -14.718531
v 11.090575 -0.138430 -14.166042
v 10.809441 -0.138430 -14.773781
v 10.809441 5.998430 -14.773781
v 10.809441 5.998430 -15.326269
v 10.809441 -0.138430 -15.326269
v 11.090576 5.998430 -14.773781
v 11.090576 5.998430 -15.326269
v 11.090575 -0.138430 -15.326269
v 11.090575 -0.138430 -14.773781
v 10.809441 -0.138430 -15.381519
v 10.809441 5.998430 -15.381519
v 10.809441 5.998430 -15.934008
v 10.809441 -0.138430 -15.934008
v 11.090576 5.998430 -15.381519
v 11.090576 5.998430 -15.934008
v 11.090575 -0.138430 -15.934008
v 11.090575 -0.138430 -15.381519
v 10.809441 -0.138430 -15.989258
v 10.809441 5.998430 -15.989258
v 10.809441 5.998430 -16.541746
v 10.809441 -0.138430 -16.541746
v 11.090576 5.998430 -15.989258
v 11.090576 5.998430 -16.541746
v 11.090575 -0.138430 -16.541746
v 11.090575 -0.138430 -15.989258
v 10.809441 -0.138430 -16.596996
v 10.809441 5.998430 -16.596996
v 10.809441 5.998430 -17.149485
v 10.809441 -0.138430 -17.149485
v 11.090576 5.998430 -16.596996
v 11.090576 5.998430 -17.149485
v 11.090575 -0.138430 -17.149485
v 11.090575 -0.138430 -16.596996
v 10.809441 -0.138430 -17.204735
v 10.809441 5.998430 -17.204735
v 10.809441 5.998430 -17.757223
v 10.809441 -0.138430 -17.757223
v 11.090576 5.998430 -17.204735
v 11.090576 5.998430 -17.757223
v 11.090575 -0.138430 -17.757223
v 11.090575 -0.138430 -17.204735
v 10.809441 -0.138430 -17.812473
v 10.809441 5.998430 -17.812473
v 10.809441 5.998430 -18.364962
v 10.809441 -0.138430 -18.364962
v 11.090576 5.998430 -17.812473
v 11.090576 5.998430 -18.364962
v 11.090575 -0.138430 -18.364962
v 11.090575 -0.138430 -17.812473
v 10.809441 -0.138430 -18.420212
v 10.809441 5.998430 -18.420212
v 10.809441 5.998430 -18.972700
v 10.809441 -0.138430 -18.972700
v 11.090576 5.998430 -18.420212
v 11.090576 5.998430 -18.972700
v 11.090575 -0.138430 -18.972700
v 11.090575 -0.138430 -18.420212
v 10.809441 -0.138430 -19.027950
v 10.809441 5.998430 -19.027950
v 10.809441 5.998430 -19.580439
v 10.809441 -0.138430 -19.580439
v 11.090576 5.998430 -19.027950
v 11.090576 5.998430 -19.580439
v 11.090575 -0.138430 -19.580439
v 11.090575 -0.138430 -19.027950
v 10.809441 -0.138430 -19.635689
v 10.809441 5.998430 -19.635689
v 10.809441 5.998430 -20.188177
v 10.809441 -0.138430 -20.188177
v 11.090576 5.998430 -19.635689
v 11.090576 5.998430 -20.188177
v 11.090575 -0.138430 -20.188177
v 11.090575 -0.138430 -19.635689
v 10.809441 -0.138430 -20.243427
v 10.809441 5.998430 -20.243427
v 10.809441 5.998430 -20.795916
v 10.809441 -0.138430 -20.795916
v 11.090576 5.998430 -20.243427
v 11.090576 5.998430 -20.795916
v 11.090575 -0.138430 -20.795916
v 11.090575 -0.138430 -20.243427
v 10.809441 -0.138430 -20.851166
v 10.809441 5.998430 -20.851166
v 10.809441 5.998430 -21.403654
v 10.809441 -0.138430 -21.403654
v 11.090576 5.998430 -20.851166
v 11.090576 5.998430 -21.403654
v 11.090575 -0.138430 -21.403654
v 11.090575 -0.138430 -20.851166
v 10.809441 -0.138430 -21.458904
v 10.809441 5.998430 -21.458904
v 10.809441 5.998430 -22.011393
v 10.809441 -0.138430 -22.011393
v 11.090576 5.998430 -21.458904
v 11.090576 5.998430 -22.011393
v 11.090575 -0.138430 -22.011393
v 11.090575 -0.138430 -21.458904
vn -0.0000 -0.0000 -1.0000
vn -1.0000 -0.0000 -0.0000
vn -0.0000 -1.0000 -0.0000
vn -0.0000 -0.0000 1.0000
vn -0.0000 1.0000 -0.0000
vn 1.0000 -0.0000 -0.0000
vt 0.010523 0.810523
vt 0.989477 0.810523
vt 0.989477 0.989477
vt 0.010523 0.989477
s 0
f 129/5/7 130/6/7 133/6/7 136/5/7
f 136/5/8 133/6/8 134/7/8 135/8/8
f 130/6/9 131/7/9 134/7/9 133/6/9
f 131/7/10 132/8/10 135/8/10 134/7/10
f 132/8/11 129/5/11 136/5/11 135/8/11
f 130/6/12 129/5/12 132/8/12 131/7/12
f 137/5/7 138/6/7 141/6/7 144/5/7
f 144/5/8 141/6/8 142/7/8 143/8/8
f 138/6/9 139/7/9 142/7/9 141/6/9
f 139/7/10 140/8/10 143/8/10 142/7/10
f 140/8/11 137/5/11 144/5/11 143/8/11
f 138/6/12 137/5/12 140/8/12 139/7/12
f 145/5/7 146/6/7 149/6/7 152/5/7
f 152/5/8 149/6/8 150/7/8 151/8/8
f 146/6/9 147/7/9 150/7/9 149/6/9
f 147/7/10 148/8/10 151/8/10 150/7/10
f 148/8/11 145/5/11 152/5/11 151/8/11
f 146/6/12 145/5/12 148/8/12 147/7/12
f 153/5/7 154/6/7 157/6/7 160/5/7
f 160/5/8 157/6/8 158/7/8 159/8/8
f 154/6/9 155/7/9 158/7/9 157/6/9
f 155/7/10 156/8/10 159/8/10 158/7/10
f 156/8/11 153/5/11 160/5/11 159/8/11
f 154/6/12 153/5/12 156/8/12 155/7/12
f 161/5/7 162/6/7 165/6/7 168/5/7
f 168/5/8 165/6/8 166/7/8 167/8/8
f 162/6/9 163/7/9 166/7/9 165/6/9
f 163/7/10 164/8/10 167/8/10 166/7/10
f 164/8/11 161/5/11 168/5/11 167/8/11
f 162/6/12 161/5/12 164/8/12 163/7/12
f 169/5/7 170/6/7 173/6/7 176/5/7
f 176/5/8 173/6/8 174/7/8 175/8/8
f 170/6/9 171/7/9 174/7/9 173/6/9
f 171/7/10 172/8/10 175/8/10 174/7/10
f 172/8/11 169/5/11 176/5/11 175/8/11
f 170/6/12 169/5/12 172/8/12 171/7/12
f 177/5/7 178/6/7 181/6/7 184/5/7
f 184/5/8 181/6/8 182/7/8 183/8/8
f 178/6/9 179/7/9 182/7/9 181/6/9
f 179/7/10 180/8/10 183/8/10 182/7/10
f 180/8/11 177/5/11 184/5/11 183/8/11
f 178/6/12 177/5/12 180/8/12 179/7/12
f 185/5/7 186/6/7 189/6/7 192/5/7
f 192/5/8 189/6/8 190/7/8 191/8/8
f 186/6/9 187/7/9 190/7/9 189/6/9
f 187/7/10 188/8/10 191/8/10 190/7/10
f 188/8/11 185/5/11 192/5/11 191/8/11
f 186/6/12 185/5/12 188/8/12 187/7/12
f 193/5/7 194/6/7 197/6/7 200/5/7
f 200/5/8 197/6/8 198/7/8 199/8/8
f 194/6/9 195/7/9 198/7/9 197/6/9
f 195/7/10 196/8/10 199/8/10 198/7/10
f 196/8/11 193/5/11 200/5/11 199/8/11
f 194/6/12 193/5/12 196/8/12 195/7/12
f 201/5/7 202/6/7 205/6/7 208/5/7
f 208/5/8 205/6/8 206/7/8 207/8/8
f 202/6/9 203/7/9 206/7/9 205/6/9
f 203/7/10 204/8/10 207/8/10 206/7/10
f 204/8/11 201/5/11 208/5/11 207/8/11
f 202/6/12 201/5/12 204/8/12 203/7/12
f 209/5/7 210/6/7 213/6/7 216/5/7
f 216/5/8 213/6/8 214/7/8 215/8/8
f 210/6/9 211/7/9 214/7/9 213/6/9
f 211/7/10 212/8/10 215/8/10 214/7/10
f 212/8/11 209/5/11 216/5/11 215/8/11
f 210/6/12 209/5/12 212/8/12 211/7/12
f 217/5/7 218/6/7 221/6/7 224/5/7
f 224/5/8 221/6/8 222/7/8 223/8/8
f 218/6/9 219/7/9 222/7/9 221/6/9
f 219/7/10 220/8/10 223/8/10 222/7/10
f 220/8/11 217/5/11 224/5/11 223/8/11
f 218/6/12 217/5/12 220/8/12 219/7/12
f 225/5/7 226/6/7 229/6/7 232/5/7
f 232/5/8 229/6/8 230/7/8 231/8/8
f 226/6/9 227/7/9 230/7/9 229/6/9
f 227/7/10 228/8/10 231/8/10 230/7/10
f 228/8/11 225/5/11 232/5/11 231/8/11
f 226/6/12 225/5/12 228/8/12 227/7/12
f 233/5/7 234/6/7 237/6/7 240/5/7
f 240/5/8 237/6/8 238/7/8 239/8/8
f 234/6/9 235/7/9 238/7/9 237/6/9
f 235/7/10 236/8/10 239/8/10 238/7/10
f 236/8/11 233/5/11 240/5/11 239/8/11
f 234/6/12 233/5/12 236/8/12 235/7/12
f 241/5/7 242/6/7 245/6/7 248/5/7
f 248/5/8 245/6/8 246/7/8 247/8/8
f 242/6/9 243/7/9 246/7/9 245/6/9
f 243/7/10 244/8/10 247/8/10 246/7/10
f 244/8/11 241/5/11 248/5/11 247/8/11
f 242/6/12 241/5/12 244/8/12 243/7/12
f 249/5/7 250/6/7 253/6/7 256/5/7
f 256/5/8 253/6/8 254/7/8 255/8/8
f 250/6/9 251/7/9 254/7/9 253/6/9
f 251/7/10 252/8/10 255/8/10 254/7/10
f 252/8/11 249/5/11 256/5/11 255/8/11
f 250/6/12 249/5/12 252/8/12 251/7/12
f 257/5/7 258/6/7 261/6/7 264/5/7
f 264/5/8 261/6/8 262/7/8 263/8/8
f 258/6/9 259/7/9 262/7/9 261/6/9
f 259/7/10 260/8/10 263/8/10 262/7/10
f 260/8/11 257/5/11 264/5/11 263/8/11
f 258/6/12 257/5/12 260/8/12 259/7/12
f 265/5/7 266/6/7 269/6/7 272/5/7
f 272/5/8 269/6/8 270/7/8 271/8/8
f 266/6/9 267/7/9 270/7/9 269/6/9
f 267/7/10 268/8/10 271/8/10 270/7/10
f 268/8/11 265/5/11 272/5/11 271/8/11
f 266/6/12 265/5/12 268/8/12 267/7/12
f 273/5/7 274/6/7 277/6/7 280/5/7
f 280/5/8 277/6/8 278/7/8 279/8/8
f 274/6/9 275/7/9 278/7/9 277/6/9
f 275/7/10 276/8/10 279/8/10 278/7/10
f 276/8/11 273/5/11 280/5/11 279/8/11
f 274/6/12 273/5/12 276/8/12 275/7/12
f 281/5/7 282/6/7 285/6/7 288/5/7
f 288/5/8 285/6/8 286/7/8 287/8/8
f 282/6/9 283/7/9 286/7/9 285/6/9
f 283/7/10 284/8/10 287/8/10 286/7/10
f 284/8/11 281/5/11 288/5/11 287/8/11
f 282/6/12 281/5/12 284/8/12 283/7/12
f 289/5/7 290/6/7 293/6/7 296/5/7
f 296/5/8 293/6/8 294/7/8 295/8/8
f 290/6/9 291/7/9 294/7/9 293/6/9
f 291/7/10 292/8/10 295/8/10 294/7/10
f 292/8/11 289/5/11 296/5/11 295/8/11
f 290/6/12 289/5/12 292/8/12 291/7/12
f 297/5/7 298/6/7 301/6/7 304/5/7
f 304/5/8 301/6/8 302/7/8 303/8/8
f 298/6/9 299/7/9 302/7/9 301/6/9
f 299/7/10 300/8/10 303/8/10 302/7/10
f 300/8/11 297/5/11 304/5/11 303/8/11
f 298/6/12 297/5/12 300/8/12 299/7/12
f 305/5/7 306/6/7 309/6/7 312/5/7
f 312/5/8 309/6/8 310/7/8 311/8/8
f 306/6/9 307/7/9 310/7/9 309/6/9
f 307/7/10 308/8/10 311/8/10 310/7/10
f 308/8/11 305/5/11 312/5/11 311/8/11
f 306/6/12 305/5/12 308/8/12 307/7/12
f 313/5/7 314/6/7 317/6/7 320/5/7
f 320/5/8 317/6/8 318/7/8 319/8/8
f 314/6/9 315/7/9 318/7/9 317/6/9
f 315/7/10 316/8/10 319/8/10 318/7/10
f 316/8/11 313/5/11 320/5/11 319/8/11
f 314/6/12 313/5/12 316/8/12 315/7/12
f 321/5/7 322/6/7 325/6/7 328/5/7
f 328/5/8 325/6/8 326/7/8 327/8/8
f 322/6/9 323/7/9 326/7/9 325/6/9
f 323/7/10 324/8/10 327/8/10 326/7/10
f 324/8/11 321/5/11 328/5/11 327/8/11
f 322/6/12 321/5/12 324/8/12 323/7/12
f 329/5/7 330/6/7 333/6/7 336/5/7
f 336/5/8 333/6/8 334/7/8 335/8/8
f 330/6/9 331/7/9 334/7/9 333/6/9
f 331/7/10 332/8/10 335/8/10 334/7/10
f 332/8/11 329/5/11 336/5/11 335/8/11
f 330/6/12 329/5/12 332/8/12 331/7/12
f 337/5/7 338/6/7 341/6/7 344/5/7
f 344/5/8 341/6/8 342/7/8 343/8/8
f 338/6/9 339/7/9 342/7/9 341/6/9
f 339/7/10 340/8/10 343/8/10 342/7/10
f 340/8/11 337/5/11 344/5/11 343/8/11
f 338/6/12 337/5/12 340/8/12 339/7/12
f 345/5/7 346/6/7 349/6/7 352/5/7
f 352/5/8 349/6/8 350/7/8 351/8/8
f 346/6/9 347/7/9 350/7/9 349/6/9
f 347/7/10 348/8/10 351/8/10 350/7/10
f 348/8/11 345/5/11 352/5/11 351/8/11
f 346/6/12 345/5/12 348/8/12 347/7/12
f 353/5/7 354/6/7 357/6/7 360/5/7
f 360/5/8 357/6/8 358/7/8 359/8/8
f 354/6/9 355/7/9 358/7/9 357/6/9
f 355/7/10 356/8/10 359/8/10 358/7/10
f 356/8/11 353/5/11 360/5/11 359/8/11
f 354/6/12 353/5/12 356/8/12 355/7/12
f 361/5/7 362/6/7 365/6/7 368/5/7
f 368/5/8 365/6/8 366/7/8 367/8/8
f 362/6/9 363/7/9 366/7/9 365/6/9
f 363/7/10 364/8/10 367/8/10 366/7/10
f 364/8/11 361/5/11 368/5/11 367/8/11
f 362/6/12 361/5/12 364/8/12 363/7/12
f 369/5/7 370/6/7 373/6/7 376/5/7
f 376/5/8 373/6/8 374/7/8 375/8/8
f 370/6/9 371/7/9 374/7/9 373/6/9
f 371/7/10 372/8/10 375/8/10 374/7/10
f 372/8/11 369/5/11 376/5/11 375/8/11
f 370/6/12 369/5/12 372/8/12 371/7/12
f 377/5/7 378/6/7 381/6/7 384/5/7
f 384/5/8 381/6/8 382/7/8 383/8/8
f 378/6/9 379/7/9 382/7/9 381/6/9
f 379/7/10 380/8/10 383/8/10 382/7/10
f 380/8/11 377/5/11 384/5/11 383/8/11
f 378/6/12 377/5/12 380/8/12 379/7/12
f 385/5/7 386/6/7 389/6/7 392/5/7
f 392/5/8 389/6/8 390/7/8 391/8/8
f 386/6/9 387/7/9 390/7/9 389/6/9
f 387/7/10 388/8/10 391/8/10 390/7/10
f 388/8/11 385/5/11 392/5/11 391/8/11
f 386/6/12 385/5/12 388/8/12 387/7/12
